{
  "accessors": [
    {
      "bufferView": 2,
      "componentType": 5126,
      "count": 65532,
      "max": [
        23.065607070922852,
        12.756890296936035,
        144.63461303710938
      ],
      "min": [
        -24.15138053894043,
        -16.086091995239258,
        -0.00536346435546875
      ],
      "type": "VEC3"
    },
    {
      "bufferView": 2,
      "byteOffset": 786384,
      "componentType": 5126,
      "count": 65532,
      "max": [
        0.99999624490737915,
        0.99999862909317017,
        0.99996441602706909
      ],
      "min": [
        -0.9999738335609436,
        -0.99999076128005981,
        -0.99987268447875977
      ],
      "type": "VEC3"
    },
    {
      "bufferView": 3,
      "componentType": 5126,
      "count": 65532,
      "max": [
        0.99988311529159546,
        0.9996722936630249,
        0.99997282028198242,
        1
      ],
      "min": [
        -0.99902337789535522,
        -0.99998849630355835,
        -0.99999606609344482,
        1
      ],
      "type": "VEC4"
    },
    {
      "bufferView": 1,
      "componentType": 5126,
      "count": 65532,
      "max": [
        0.95142799615859985,
        0.99792098999023438
      ],
      "min": [
        0.0020789999980479479,
        0.10997200012207031
      ],
      "type": "VEC2"
    },
    {
      "bufferView": 0,
      "componentType": 5125,
      "count": 375933,
      "max": [
        65531
      ],
      "min": [
        0
      ],
      "type": "SCALAR"
    },
    {
      "bufferView": 2,
      "byteOffset": 1572768,
      "componentType": 5126,
      "count": 65532,
      "max": [
        22.955259323120117,
        13.752544403076172,
        171.21905517578125
      ],
      "min": [
        -23.818708419799805,
        -16.476411819458008,
        -0.16138458251953125
      ],
      "type": "VEC3"
    },
    {
      "bufferView": 2,
      "byteOffset": 2359152,
      "componentType": 5126,
      "count": 65532,
      "max": [
        0.99998009204864502,
        0.99998265504837036,
        0.99997305870056152
      ],
      "min": [
        -0.99998116493225098,
        -0.99995583295822144,
        -0.99997431039810181
      ],
      "type": "VEC3"
    },
    {
      "bufferView": 3,
      "byteOffset": 1048512,
      "componentType": 5126,
      "count": 65532,
      "max": [
        0.99999570846557617,
        0.99999630451202393,
        0.99979043006896973,
        1
      ],
      "min": [
        -0.99999338388442993,
        -0.99999314546585083,
        -0.99979817867279053,
        1
      ],
      "type": "VEC4"
    },
    {
      "bufferView": 1,
      "byteOffset": 524256,
      "componentType": 5126,
      "count": 65532,
      "max": [
        0.95486700534820557,
        0.91475999355316162
      ],
      "min": [
        0.012474000453948975,
        0.0040010213851928711
      ],
      "type": "VEC2"
    },
    {
      "bufferView": 0,
      "byteOffset": 1503732,
      "componentType": 5125,
      "count": 364080,
      "max": [
        65531
      ],
      "min": [
        0
      ],
      "type": "SCALAR"
    },
    {
      "bufferView": 2,
      "byteOffset": 3145536,
      "componentType": 5126,
      "count": 19900,
      "max": [
        12.94605827331543,
        13.764720916748047,
        171.75399780273438
      ],
      "min": [
        -24.135629653930664,
        -16.194547653198242,
        -0.35826873779296875
      ],
      "type": "VEC3"
    },
    {
      "bufferView": 2,
      "byteOffset": 3384336,
      "componentType": 5126,
      "count": 19900,
      "max": [
        0.99993562698364258,
        0.9999116063117981,
        0.99999487400054932
      ],
      "min": [
        -0.99999582767486572,
        -0.99998933076858521,
        -0.99969744682312012
      ],
      "type": "VEC3"
    },
    {
      "bufferView": 3,
      "byteOffset": 2097024,
      "componentType": 5126,
      "count": 19900,
      "max": [
        0.99855220317840576,
        0.99974459409713745,
        0.99998271465301514,
        1
      ],
      "min": [
        -0.99994254112243652,
        -0.99988675117492676,
        -0.99973118305206299,
        -1
      ],
      "type": "VEC4"
    },
    {
      "bufferView": 1,
      "byteOffset": 1048512,
      "componentType": 5126,
      "count": 19900,
      "max": [
        0.99160701036453247,
        0.99792098999023438
      ],
      "min": [
        0.0020789999980479479,
        0.0022240281105041504
      ],
      "type": "VEC2"
    },
    {
      "bufferView": 0,
      "byteOffset": 2960052,
      "componentType": 5125,
      "count": 102297,
      "max": [
        19899
      ],
      "min": [
        0
      ],
      "type": "SCALAR"
    },
    {
      "bufferView": 2,
      "byteOffset": 3623136,
      "componentType": 5126,
      "count": 945,
      "max": [
        13.037935256958008,
        8.8728408813476562,
        0.79680633544921875
      ],
      "min": [
        -10.96161937713623,
        -12.960142135620117,
        -0.35826873779296875
      ],
      "type": "VEC3"
    },
    {
      "bufferView": 2,
      "byteOffset": 3634476,
      "componentType": 5126,
      "count": 945,
      "max": [
        0.8739776611328125,
        0.63973486423492432,
        -0.3262934684753418
      ],
      "min": [
        -0.83020120859146118,
        -0.87637889385223389,
        -0.99999517202377319
      ],
      "type": "VEC3"
    },
    {
      "bufferView": 0,
      "byteOffset": 3369240,
      "componentType": 5125,
      "count": 4926,
      "max": [
        944
      ],
      "min": [
        0
      ],
      "type": "SCALAR"
    }
  ],
  "asset": {
    "generator": "Sketchfab (OSG glTF plugin)",
    "version": "2.0"
  },
  "bufferViews": [
    {
      "buffer": 0,
      "byteLength": 3388944,
      "byteOffset": 0,
      "name": "floatBufferViews",
      "target": 34963
    },
    {
      "buffer": 0,
      "byteLength": 1207712,
      "byteOffset": 3388944,
      "byteStride": 8,
      "name": "floatBufferViews",
      "target": 34962
    },
    {
      "buffer": 0,
      "byteLength": 3645816,
      "byteOffset": 4596656,
      "byteStride": 12,
      "name": "floatBufferViews",
      "target": 34962
    },
    {
      "buffer": 0,
      "byteLength": 2415424,
      "byteOffset": 8242472,
      "byteStride": 16,
      "name": "floatBufferViews",
      "target": 34962
    }
  ],
  "buffers": [
    {
      "byteLength": 10657896,
      "uri": "scene.bin"
    }
  ],
  "extensionsRequired": [
    "KHR_materials_pbrSpecularGlossiness"
  ],
  "extensionsUsed": [
    "KHR_materials_pbrSpecularGlossiness"
  ],
  "images": [
    {
      "uri": "textures/material_0_diffuse.png"
    }
  ],
  "materials": [
    {
      "doubleSided": true,
      "emissiveFactor": [
        0,
        0,
        0
      ],
      "extensions": {
        "KHR_materials_pbrSpecularGlossiness": {
          "diffuseFactor": [
            1,
            1,
            1,
            1
          ],
          "diffuseTexture": {
            "index": 0,
            "texCoord": 0
          },
          "glossinessFactor": 0,
          "specularFactor": [
            0,
            0,
            0
          ]
        }
      },
      "name": "material_0",
      "occlusionFactor": 1
    },
    {
      "doubleSided": true,
      "emissiveFactor": [
        0,
        0,
        0
      ],
      "extensions": {
        "KHR_materials_pbrSpecularGlossiness": {
          "diffuseFactor": [
            1,
            1,
            1,
            1
          ],
          "glossinessFactor": 0,
          "specularFactor": [
            0,
            0,
            0
          ]
        }
      },
      "name": "material_1",
      "occlusionFactor": 1
    }
  ],
  "meshes": [
    {
      "primitives": [
        {
          "attributes": {
            "NORMAL": 1,
            "POSITION": 0,
            "TANGENT": 2,
            "TEXCOORD_0": 3
          },
          "indices": 4,
          "material": 0,
          "mode": 4
        }
      ]
    },
    {
      "primitives": [
        {
          "attributes": {
            "NORMAL": 6,
            "POSITION": 5,
            "TANGENT": 7,
            "TEXCOORD_0": 8
          },
          "indices": 9,
          "material": 0,
          "mode": 4
        }
      ]
    },
    {
      "primitives": [
        {
          "attributes": {
            "NORMAL": 11,
            "POSITION": 10,
            "TANGENT": 12,
            "TEXCOORD_0": 13
          },
          "indices": 14,
          "material": 0,
          "mode": 4
        }
      ]
    },
    {
      "primitives": [
        {
          "attributes": {
            "NORMAL": 16,
            "POSITION": 15
          },
          "indices": 17,
          "material": 1,
          "mode": 4
        }
      ]
    }
  ],
  "nodes": [
    {
      "children": [
        1
      ],
      "name": "RootNode (gltf orientation matrix)",
      "rotation": [
        -0.70710678118654746,
        -0,
        -0,
        0.70710678118654757
      ]
    },
    {
      "children": [
        2
      ],
      "name": "RootNode (model correction matrix)"
    },
    {
      "children": [
        7
      ],
      "name": "katya.obj.cleaner"
    },
    {
      "mesh": 0,
      "name": ""
    },
    {
      "mesh": 1,
      "name": ""
    },
    {
      "mesh": 2,
      "name": ""
    },
    {
      "mesh": 3,
      "name": ""
    },
    {
      "children": [
        3,
        4,
        5,
        6
      ],
      "name": "Geode"
    }
  ],
  "samplers": [
    {
      "magFilter": 9729,
      "minFilter": 9987,
      "wrapS": 10497,
      "wrapT": 10497
    }
  ],
  "scene": 0,
  "scenes": [
    {
      "name": "OSG_Scene",
      "nodes": [
        0
      ]
    }
  ],
  "textures": [
    {
      "sampler": 0,
      "source": 0
    }
  ]
}

