{
  "accessors": [
    {
      "bufferView": 1,
      "componentType": 5126,
      "count": 65532,
      "max": [
        0.12505699694156647,
        0.19879999756813049,
        0.21434600651264191
      ],
      "min": [
        -0.22015200555324554,
        -0.05835999920964241,
        -0.083912000060081482
      ],
      "type": "VEC3"
    },
    {
      "bufferView": 1,
      "byteOffset": 786384,
      "componentType": 5126,
      "count": 65532,
      "max": [
        0.99992716312408447,
        0.99999988079071045,
        0.99999910593032837
      ],
      "min": [
        -0.99999725818634033,
        -0.99882471561431885,
        -0.99996018409729004
      ],
      "type": "VEC3"
    },
    {
      "bufferView": 2,
      "componentType": 5126,
      "count": 65532,
      "max": [
        1,
        0.95686274766921997,
        0.93725490570068359,
        1
      ],
      "min": [
        0.054901961237192154,
        0,
        0,
        1
      ],
      "type": "VEC4"
    },
    {
      "bufferView": 0,
      "componentType": 5125,
      "count": 350586,
      "max": [
        65531
      ],
      "min": [
        0
      ],
      "type": "SCALAR"
    },
    {
      "bufferView": 1,
      "byteOffset": 1572768,
      "componentType": 5126,
      "count": 65532,
      "max": [
        0.11023300141096115,
        0.19863499701023102,
        0.1325480043888092
      ],
      "min": [
        -0.19476400315761566,
        -0.11606799811124802,
        -0.20883099734783173
      ],
      "type": "VEC3"
    },
    {
      "bufferView": 1,
      "byteOffset": 2359152,
      "componentType": 5126,
      "count": 65532,
      "max": [
        0.9999845027923584,
        0.99999517202377319,
        0.99998760223388672
      ],
      "min": [
        -0.99999725818634033,
        -0.99998164176940918,
        -0.99999868869781494
      ],
      "type": "VEC3"
    },
    {
      "bufferView": 2,
      "byteOffset": 1048512,
      "componentType": 5126,
      "count": 65532,
      "max": [
        1,
        0.93725490570068359,
        0.92941176891326904,
        1
      ],
      "min": [
        0,
        0,
        0,
        1
      ],
      "type": "VEC4"
    },
    {
      "bufferView": 0,
      "byteOffset": 1402344,
      "componentType": 5125,
      "count": 317088,
      "max": [
        65531
      ],
      "min": [
        0
      ],
      "type": "SCALAR"
    },
    {
      "bufferView": 1,
      "byteOffset": 3145536,
      "componentType": 5126,
      "count": 65532,
      "max": [
        0.14266000688076019,
        0.19757400453090668,
        0.21385300159454346
      ],
      "min": [
        -0.14655600488185883,
        -0.20574499666690826,
        -0.18411099910736084
      ],
      "type": "VEC3"
    },
    {
      "bufferView": 1,
      "byteOffset": 3931920,
      "componentType": 5126,
      "count": 65532,
      "max": [
        0.99999713897705078,
        0.99999958276748657,
        0.99989360570907593
      ],
      "min": [
        -0.99999892711639404,
        -0.99998164176940918,
        -0.99997955560684204
      ],
      "type": "VEC3"
    },
    {
      "bufferView": 2,
      "byteOffset": 2097024,
      "componentType": 5126,
      "count": 65532,
      "max": [
        1,
        0.91372549533843994,
        0.88627451658248901,
        1
      ],
      "min": [
        0,
        0,
        0,
        1
      ],
      "type": "VEC4"
    },
    {
      "bufferView": 0,
      "byteOffset": 2670696,
      "componentType": 5125,
      "count": 315699,
      "max": [
        65531
      ],
      "min": [
        0
      ],
      "type": "SCALAR"
    },
    {
      "bufferView": 1,
      "byteOffset": 4718304,
      "componentType": 5126,
      "count": 65532,
      "max": [
        0.18247400224208832,
        0.19796499609947205,
        0.18951299786567688
      ],
      "min": [
        -0.065700002014636993,
        -0.096694000065326691,
        -0.20731499791145325
      ],
      "type": "VEC3"
    },
    {
      "bufferView": 1,
      "byteOffset": 5504688,
      "componentType": 5126,
      "count": 65532,
      "max": [
        0.99999445676803589,
        0.99998611211776733,
        0.99997973442077637
      ],
      "min": [
        -0.99991893768310547,
        -0.99999719858169556,
        -0.99999105930328369
      ],
      "type": "VEC3"
    },
    {
      "bufferView": 2,
      "byteOffset": 3145536,
      "componentType": 5126,
      "count": 65532,
      "max": [
        1,
        0.90980392694473267,
        0.88627451658248901,
        1
      ],
      "min": [
        0,
        0,
        0,
        1
      ],
      "type": "VEC4"
    },
    {
      "bufferView": 0,
      "byteOffset": 3933492,
      "componentType": 5125,
      "count": 328209,
      "max": [
        65531
      ],
      "min": [
        0
      ],
      "type": "SCALAR"
    },
    {
      "bufferView": 1,
      "byteOffset": 6291072,
      "componentType": 5126,
      "count": 65532,
      "max": [
        0.1424809992313385,
        0.097349002957344055,
        0.13068500161170959
      ],
      "min": [
        -0.095320001244544983,
        -0.1147800013422966,
        -0.15459099411964417
      ],
      "type": "VEC3"
    },
    {
      "bufferView": 1,
      "byteOffset": 7077456,
      "componentType": 5126,
      "count": 65532,
      "max": [
        0.99999713897705078,
        0.99999326467514038,
        0.99999934434890747
      ],
      "min": [
        -0.99999320507049561,
        -0.99998486042022705,
        -0.99992477893829346
      ],
      "type": "VEC3"
    },
    {
      "bufferView": 2,
      "byteOffset": 4194048,
      "componentType": 5126,
      "count": 65532,
      "max": [
        1,
        0.94901961088180542,
        0.97647058963775635,
        1
      ],
      "min": [
        0,
        0,
        0,
        1
      ],
      "type": "VEC4"
    },
    {
      "bufferView": 0,
      "byteOffset": 5246328,
      "componentType": 5125,
      "count": 322845,
      "max": [
        65531
      ],
      "min": [
        0
      ],
      "type": "SCALAR"
    },
    {
      "bufferView": 1,
      "byteOffset": 7863840,
      "componentType": 5126,
      "count": 65532,
      "max": [
        0.1196879968047142,
        -0.0091850003227591515,
        0.12531599402427673
      ],
      "min": [
        -0.148390993475914,
        -0.27598199248313904,
        -0.16368800401687622
      ],
      "type": "VEC3"
    },
    {
      "bufferView": 1,
      "byteOffset": 8650224,
      "componentType": 5126,
      "count": 65532,
      "max": [
        0.9996306300163269,
        0.99996215105056763,
        0.99999898672103882
      ],
      "min": [
        -0.99998867511749268,
        -0.99998730421066284,
        -0.9999958872795105
      ],
      "type": "VEC3"
    },
    {
      "bufferView": 2,
      "byteOffset": 5242560,
      "componentType": 5126,
      "count": 65532,
      "max": [
        0.9843137264251709,
        0.88627451658248901,
        0.86666667461395264,
        1
      ],
      "min": [
        0,
        0,
        0,
        1
      ],
      "type": "VEC4"
    },
    {
      "bufferView": 0,
      "byteOffset": 6537708,
      "componentType": 5125,
      "count": 334284,
      "max": [
        65531
      ],
      "min": [
        0
      ],
      "type": "SCALAR"
    },
    {
      "bufferView": 1,
      "byteOffset": 9436608,
      "componentType": 5126,
      "count": 65532,
      "max": [
        0.14035999774932861,
        0.19740700721740723,
        0.12150999903678894
      ],
      "min": [
        -0.14551599323749542,
        -0.24185200035572052,
        -0.16582800447940826
      ],
      "type": "VEC3"
    },
    {
      "bufferView": 1,
      "byteOffset": 10222992,
      "componentType": 5126,
      "count": 65532,
      "max": [
        0.99998748302459717,
        0.9999692440032959,
        0.99997824430465698
      ],
      "min": [
        -0.99999535083770752,
        -0.99997466802597046,
        -0.99997842311859131
      ],
      "type": "VEC3"
    },
    {
      "bufferView": 2,
      "byteOffset": 6291072,
      "componentType": 5126,
      "count": 65532,
      "max": [
        1,
        0.9843137264251709,
        0.97647058963775635,
        1
      ],
      "min": [
        0,
        0,
        0,
        1
      ],
      "type": "VEC4"
    },
    {
      "bufferView": 0,
      "byteOffset": 7874844,
      "componentType": 5125,
      "count": 302955,
      "max": [
        65531
      ],
      "min": [
        0
      ],
      "type": "SCALAR"
    },
    {
      "bufferView": 1,
      "byteOffset": 11009376,
      "componentType": 5126,
      "count": 65532,
      "max": [
        0.18303400278091431,
        0.1984650045633316,
        0.00076099997386336327
      ],
      "min": [
        -0.13870100677013397,
        -0.144213005900383,
        -0.21266099810600281
      ],
      "type": "VEC3"
    },
    {
      "bufferView": 1,
      "byteOffset": 11795760,
      "componentType": 5126,
      "count": 65532,
      "max": [
        0.99999445676803589,
        0.99999773502349854,
        0.99997866153717041
      ],
      "min": [
        -0.99983227252960205,
        -0.99995332956314087,
        -0.99999868869781494
      ],
      "type": "VEC3"
    },
    {
      "bufferView": 2,
      "byteOffset": 7339584,
      "componentType": 5126,
      "count": 65532,
      "max": [
        1,
        0.95686274766921997,
        0.95686274766921997,
        1
      ],
      "min": [
        0,
        0,
        0,
        1
      ],
      "type": "VEC4"
    },
    {
      "bufferView": 0,
      "byteOffset": 9086664,
      "componentType": 5125,
      "count": 313842,
      "max": [
        65531
      ],
      "min": [
        0
      ],
      "type": "SCALAR"
    },
    {
      "bufferView": 1,
      "byteOffset": 12582144,
      "componentType": 5126,
      "count": 65532,
      "max": [
        0.16500499844551086,
        0.19833700358867645,
        0.0010720000136643648
      ],
      "min": [
        -0.14860899746417999,
        -0.28245800733566284,
        -0.21267600357532501
      ],
      "type": "VEC3"
    },
    {
      "bufferView": 1,
      "byteOffset": 13368528,
      "componentType": 5126,
      "count": 65532,
      "max": [
        0.99993741512298584,
        0.99999773502349854,
        0.99989074468612671
      ],
      "min": [
        -0.9999854564666748,
        -0.99990975856781006,
        -0.99999409914016724
      ],
      "type": "VEC3"
    },
    {
      "bufferView": 2,
      "byteOffset": 8388096,
      "componentType": 5126,
      "count": 65532,
      "max": [
        1,
        0.94901961088180542,
        0.97647058963775635,
        1
      ],
      "min": [
        0,
        0,
        0,
        1
      ],
      "type": "VEC4"
    },
    {
      "bufferView": 0,
      "byteOffset": 10342032,
      "componentType": 5125,
      "count": 317283,
      "max": [
        65531
      ],
      "min": [
        0
      ],
      "type": "SCALAR"
    },
    {
      "bufferView": 1,
      "byteOffset": 14154912,
      "componentType": 5126,
      "count": 22470,
      "max": [
        0.13342399895191193,
        -0.041864998638629913,
        0.001382000045850873
      ],
      "min": [
        0.0021589999087154865,
        -0.27055299282073975,
        -0.15490899980068207
      ],
      "type": "VEC3"
    },
    {
      "bufferView": 1,
      "byteOffset": 14424552,
      "componentType": 5126,
      "count": 22470,
      "max": [
        0.99998688697814941,
        0.99993342161178589,
        0.99949848651885986
      ],
      "min": [
        -0.99997305870056152,
        -0.99995607137680054,
        -0.99995851516723633
      ],
      "type": "VEC3"
    },
    {
      "bufferView": 2,
      "byteOffset": 9436608,
      "componentType": 5126,
      "count": 22470,
      "max": [
        0.9843137264251709,
        0.93725490570068359,
        0.86666667461395264,
        1
      ],
      "min": [
        0,
        0,
        0,
        1
      ],
      "type": "VEC4"
    },
    {
      "bufferView": 0,
      "byteOffset": 11611164,
      "componentType": 5125,
      "count": 97206,
      "max": [
        22469
      ],
      "min": [
        0
      ],
      "type": "SCALAR"
    }
  ],
  "asset": {
    "generator": "Sketchfab (OSG glTF plugin)",
    "version": "2.0"
  },
  "bufferViews": [
    {
      "buffer": 0,
      "byteLength": 11999988,
      "byteOffset": 0,
      "name": "floatBufferViews",
      "target": 34963
    },
    {
      "buffer": 0,
      "byteLength": 14694192,
      "byteOffset": 11999988,
      "byteStride": 12,
      "name": "floatBufferViews",
      "target": 34962
    },
    {
      "buffer": 0,
      "byteLength": 9796128,
      "byteOffset": 26694180,
      "byteStride": 16,
      "name": "floatBufferViews",
      "target": 34962
    }
  ],
  "buffers": [
    {
      "byteLength": 36490308,
      "uri": "scene.bin"
    }
  ],
  "materials": [
    {
      "doubleSided": true,
      "emissiveFactor": [
        0,
        0,
        0
      ],
      "name": "Scene - Root",
      "pbrMetallicRoughness": {
        "baseColorFactor": [
          1,
          1,
          1,
          1
        ],
        "metallicFactor": 0,
        "roughnessFactor": 0.59999999999999998
      }
    }
  ],
  "meshes": [
    {
      "primitives": [
        {
          "attributes": {
            "COLOR_0": 2,
            "NORMAL": 1,
            "POSITION": 0
          },
          "indices": 3,
          "material": 0,
          "mode": 4
        }
      ]
    },
    {
      "primitives": [
        {
          "attributes": {
            "COLOR_0": 6,
            "NORMAL": 5,
            "POSITION": 4
          },
          "indices": 7,
          "material": 0,
          "mode": 4
        }
      ]
    },
    {
      "primitives": [
        {
          "attributes": {
            "COLOR_0": 10,
            "NORMAL": 9,
            "POSITION": 8
          },
          "indices": 11,
          "material": 0,
          "mode": 4
        }
      ]
    },
    {
      "primitives": [
        {
          "attributes": {
            "COLOR_0": 14,
            "NORMAL": 13,
            "POSITION": 12
          },
          "indices": 15,
          "material": 0,
          "mode": 4
        }
      ]
    },
    {
      "primitives": [
        {
          "attributes": {
            "COLOR_0": 18,
            "NORMAL": 17,
            "POSITION": 16
          },
          "indices": 19,
          "material": 0,
          "mode": 4
        }
      ]
    },
    {
      "primitives": [
        {
          "attributes": {
            "COLOR_0": 22,
            "NORMAL": 21,
            "POSITION": 20
          },
          "indices": 23,
          "material": 0,
          "mode": 4
        }
      ]
    },
    {
      "primitives": [
        {
          "attributes": {
            "COLOR_0": 26,
            "NORMAL": 25,
            "POSITION": 24
          },
          "indices": 27,
          "material": 0,
          "mode": 4
        }
      ]
    },
    {
      "primitives": [
        {
          "attributes": {
            "COLOR_0": 30,
            "NORMAL": 29,
            "POSITION": 28
          },
          "indices": 31,
          "material": 0,
          "mode": 4
        }
      ]
    },
    {
      "primitives": [
        {
          "attributes": {
            "COLOR_0": 34,
            "NORMAL": 33,
            "POSITION": 32
          },
          "indices": 35,
          "material": 0,
          "mode": 4
        }
      ]
    },
    {
      "primitives": [
        {
          "attributes": {
            "COLOR_0": 38,
            "NORMAL": 37,
            "POSITION": 36
          },
          "indices": 39,
          "material": 0,
          "mode": 4
        }
      ]
    }
  ],
  "nodes": [
    {
      "children": [
        1
      ],
      "name": "RootNode (gltf orientation matrix)",
      "rotation": [
        -0.70710678118654746,
        -0,
        -0,
        0.70710678118654757
      ]
    },
    {
      "children": [
        2
      ],
      "matrix": [
        0.61390566825866699,
        0.78937941789627075,
        0,
        0,
        0.083901301026344299,
        -0.065250605344772339,
        -0.99433541297912598,
        0,
        -0.78490787744522095,
        0.61042815446853638,
        -0.10628767311573029,
        0,
        -0.0030005555599927902,
        -0.030417367815971375,
        -0.040667477995157242,
        1
      ],
      "name": "RootNode (model correction matrix)"
    },
    {
      "children": [
        13
      ],
      "name": "Austin2.obj.cleaner.materialmerger.gles"
    },
    {
      "mesh": 0,
      "name": ""
    },
    {
      "mesh": 1,
      "name": ""
    },
    {
      "mesh": 2,
      "name": ""
    },
    {
      "mesh": 3,
      "name": ""
    },
    {
      "mesh": 4,
      "name": ""
    },
    {
      "mesh": 5,
      "name": ""
    },
    {
      "mesh": 6,
      "name": ""
    },
    {
      "mesh": 7,
      "name": ""
    },
    {
      "mesh": 8,
      "name": ""
    },
    {
      "mesh": 9,
      "name": ""
    },
    {
      "children": [
        3,
        4,
        5,
        6,
        7,
        8,
        9,
        10,
        11,
        12
      ],
      "name": "Geode"
    }
  ],
  "scene": 0,
  "scenes": [
    {
      "name": "OSG_Scene",
      "nodes": [
        0
      ]
    }
  ]
}

